<?xml version="1.0" encoding="utf-8"?>
<!-- Generator: Adobe Illustrator 23.0.1, SVG Export Plug-In . SVG Version: 6.00 Build 0)  -->
<svg version="1.1" id="Layer_1" xmlns="http://www.w3.org/2000/svg" xmlns:xlink="http://www.w3.org/1999/xlink" x="0px" y="0px"
	 viewBox="0 0 792 612" style="enable-background:new 0 0 792 612;" xml:space="preserve">
<style type="text/css">
	.st0{stroke:#2E3192;stroke-width:1.6772;stroke-miterlimit:10;}
	.st1{stroke:#2E3192;stroke-width:1.7318;stroke-miterlimit:10;}
	.st2{stroke:#2E3192;stroke-width:1.872;stroke-miterlimit:10;}
	.st3{fill:none;}
	.st4{stroke:#002B8A;stroke-width:1.1145;stroke-miterlimit:10;}
	.st5{font-family:'OCRAExtended';}
	.st6{font-size:34.3562px;}
</style>
<path class="st0" d="M89.3,242.2v2.7c0,3.4-1,6.4-3,8.8c-2,2.5-4.4,3.7-7.2,3.7H63.5v-49.2h15.6c2.8,0,5.2,1.2,7.2,3.7
	c2,2.4,3,5.4,3,8.8v2.6c0,3.7-1.2,6.8-3.5,9.4C88.2,235.4,89.3,238.6,89.3,242.2z M84.1,223.3v-2.6c0-1.7-0.5-3.2-1.5-4.4
	c-1-1.2-2.2-1.9-3.6-1.9H68.6v15.1H79c1.4,0,2.6-0.6,3.6-1.8C83.6,226.5,84.1,225,84.1,223.3z M84.1,244.9v-2.6
	c0-1.7-0.5-3.2-1.5-4.4c-1-1.2-2.2-1.9-3.6-1.9H68.6v15.1h10.3c1.4,0,2.6-0.6,3.6-1.8C83.6,248.1,84.1,246.6,84.1,244.9z"/>
<path class="st1" d="M633.4,253c0.8,1.8,1.4,3.7,1.2,5.7c-0.3,2.4,0.1-2.2,0,0c0,1.7-0.6,5.3-3.2,5.3c-0.9,0-2.9-0.1-4-0.1L48.6,264
	c-2.2,0,9.5-3.3,11.6-4.2l0,0c0.3-0.1,0.6-0.2,0.9-0.2c252.6,0,534.4-0.3,551.8,0c0.6,0-0.7-15.2,2-7.1c1.4,4.4,5.4,7.3,9.7,7.2
	c1.6,0,3.3-0.1,4.9-0.1c0.1,0,0.3,0,0.4-0.1c0.2-0.2,0.3-0.4,0.3-0.9c0-0.3-0.1-0.7-0.3-1.2L613.5,221c-0.8-1.7-1.2-3.6-1.2-5.7
	c0-2.4,0.5-4.4,1.4-6.2c1-1.8,2.1-2.6,3.6-2.6h11.5c1.4,0,2.7,1,4,3.1s1.8,4.6,1.8,7.5c0,1.1-0.2,2-0.7,2.8s-1,1.1-1.4,1.1
	c-0.8,0-1.3-0.3-1.5-0.9s-0.6-1.7-0.8-3.3c-0.3-1.6-0.9-2.4-1.7-2.4h-10.9c-0.6,0-0.8,0.3-0.8,0.9c0,0.4,0.1,0.8,0.3,1.3L633.4,253z
	"/>
<path class="st2" d="M499.5,349.5"/>
<rect x="957" y="378" class="st3" width="7" height="46"/>
<rect x="75" y="370" class="st3" width="573" height="32"/>
<text transform="matrix(1.1335 0 0 1 89.9995 255.9268)" class="st4 st5 st6">OB FROM HUMAN RESOURCE</text>
</svg>
